<svg width="146" height="152" viewBox="0 0 146 152" fill="none" xmlns="http://www.w3.org/2000/svg">
<ellipse cx="73" cy="75.9796" rx="73" ry="75.9796" fill="#D9D9D9"/>
<path d="M72.9992 42.2109C77.4772 42.2109 81.7718 43.9898 84.9382 47.1562C88.1047 50.3226 89.8835 54.6173 89.8835 59.0953C89.8835 63.5733 88.1047 67.8679 84.9382 71.0343C81.7718 74.2007 77.4772 75.9796 72.9992 75.9796C68.5212 75.9796 64.2266 74.2007 61.0601 71.0343C57.8937 67.8679 56.1148 63.5733 56.1148 59.0953C56.1148 54.6173 57.8937 50.3226 61.0601 47.1562C64.2266 43.9898 68.5212 42.2109 72.9992 42.2109ZM72.9992 84.4218C91.6564 84.4218 106.768 91.9775 106.768 101.306V109.748H39.2305V101.306C39.2305 91.9775 54.342 84.4218 72.9992 84.4218Z" fill="white"/>
</svg>
