<svg width="32" height="32" viewBox="0 0 32 32" fill="none" xmlns="http://www.w3.org/2000/svg">
<path d="M15.0663 25.7334C14.8219 25.4889 14.6939 25.1778 14.6823 24.8C14.6708 24.4222 14.7877 24.1111 15.033 23.8667L21.5663 17.3334H6.66635C6.28857 17.3334 5.97168 17.2054 5.71568 16.9494C5.45968 16.6934 5.33212 16.3769 5.33301 16C5.33301 15.6222 5.46101 15.3054 5.71701 15.0494C5.97301 14.7934 6.28946 14.6658 6.66635 14.6667H21.5663L15.033 8.13336C14.7886 7.88891 14.6717 7.5778 14.6823 7.20002C14.693 6.82225 14.821 6.51114 15.0663 6.26669C15.3108 6.02225 15.6219 5.90002 15.9997 5.90002C16.3775 5.90002 16.6886 6.02225 16.933 6.26669L25.733 15.0667C25.8663 15.1778 25.961 15.3169 26.017 15.484C26.073 15.6511 26.1006 15.8231 26.0997 16C26.0997 16.1778 26.0721 16.3445 26.017 16.5C25.9619 16.6556 25.8672 16.8 25.733 16.9334L16.933 25.7334C16.6886 25.9778 16.3775 26.1 15.9997 26.1C15.6219 26.1 15.3108 25.9778 15.0663 25.7334Z" fill="#2081E4"/>
</svg>
